<svg xmlns="http://www.w3.org/2000/svg" width="512" height="512"><path d="M242 .604c-53.392 3.554-98.849 20.451-141.996 52.781-10.925 8.186-34.967 31.677-43.463 42.468C27.381 132.884 9.952 173.236 2.918 220c-3.082 20.492-3.082 51.508 0 72 7.026 46.709 24.604 87.392 53.642 124.147 7.479 9.468 29.825 31.814 39.293 39.293 36.755 29.038 77.438 46.616 124.147 53.642 20.492 3.082 51.508 3.082 72 0 46.709-7.026 87.392-24.604 124.147-53.642 9.468-7.479 31.814-29.825 39.293-39.293 28.959-36.656 46.83-77.954 53.504-123.647 1.125-7.7 2.048-17.011 2.051-20.691.003-3.68.455-6.969 1.005-7.309.55-.34 1-4.668 1-9.618 0-5.745-.362-8.777-1-8.382-.629.389-1.002-1.908-1.005-6.191-.003-3.745-.926-13.109-2.051-20.809-6.674-45.693-24.545-86.991-53.504-123.647-7.479-9.468-29.825-31.814-39.293-39.293C379.456 27.573 337.867 9.59 292.5 3.095 278.852 1.141 253.049-.132 242 .604m-33.024 137.742C117.806 182.163 125 178.431 125 181.903c0 2.065.727 3.522 2.25 4.509 1.238.801 30.548 15.055 65.135 31.675 59.687 28.68 63.044 30.16 66 29.09 4.564-1.652 125.805-60.09 127.38-61.397.735-.61 1.202-2.491 1.036-4.178-.296-3.019-1.353-3.576-64.094-33.782-35.087-16.892-64.573-30.96-65.524-31.262-1.049-.333-20.035 8.248-48.207 21.788m-69.635 107.123c-7.237 3.477-13.621 7.185-14.185 8.24-2.452 4.581-1.055 5.377 65.652 37.41C226.177 308.104 255.514 322 256.001 322c1.14 0 128.074-60.917 129.8-62.293.716-.57 1.166-2.425 1-4.122-.282-2.891-1.149-3.504-13.801-9.756-7.425-3.668-13.998-6.706-14.606-6.75-.608-.043-20.645 9.322-44.525 20.812-23.881 11.49-45.208 21.388-47.394 21.994-5.616 1.559-16.238 1.379-22.043-.374-2.713-.819-24.029-10.719-47.37-22-23.34-11.281-42.915-20.478-43.5-20.437-.584.04-6.984 2.918-14.221 6.395M.36 256c0 5.225.169 7.363.375 4.75.206-2.613.206-6.887 0-9.5-.206-2.613-.375-.475-.375 4.75m138.592 63.75c-13.396 6.722-13.452 6.764-13.452 10.227v3.477l64 30.886c35.2 16.987 65.125 30.885 66.5 30.885s31.3-13.898 66.5-30.885l64-30.886v-3.477c0-3.466-.043-3.498-13.5-10.194-7.425-3.694-14.103-6.732-14.839-6.75-.737-.018-20.087 9.025-43 20.096-22.914 11.07-44.289 20.97-47.5 22-7.086 2.271-15.526 2.397-22.464.337-2.842-.844-24.321-10.744-47.732-22C174.054 322.21 154.339 313 153.652 313c-.686 0-7.301 3.038-14.7 6.75" fill="undefined" fill-rule="evenodd"/></svg>